<svg width="14" height="8" viewBox="0 0 14 8" fill="none" xmlns="http://www.w3.org/2000/svg">
<path d="M13.3333 0.833333V1.66667H12.5V2.5H11.6667V3.33333H10.8333V4.16667H10V5H9.16667V5.83333H8.33333V6.66667H7.5V7.5H5.83333V6.66667H5V5.83333H4.16667V5H3.33333V4.16667H2.5V3.33333H1.66667V2.5H0.833333V1.66667H0V0.833333H0.833333V0H1.66667V0.833333H2.5V1.66667H3.33333V2.5H4.16667V3.33333H5V4.16667H5.83333V5H7.5V4.16667H8.33333V3.33333H9.16667V2.5H10V1.66667H10.8333V0.833333H11.6667V0H12.5V0.833333H13.3333Z" fill="black"/>
</svg>
